<svg width="25" height="25" fill="none" xmlns="http://www.w3.org/2000/svg"><g clip-path="url(#a)"><path d="M12.5 0C5.596 0 0 5.596 0 12.5c0 5.862 4.036 10.781 9.48 12.132V16.32H6.903V12.5H9.48v-1.646c0-4.254 1.926-6.226 6.103-6.226.792 0 2.158.155 2.717.31V8.4a16.067 16.067 0 0 0-1.444-.046c-2.049 0-2.841.777-2.841 2.795V12.5h4.083l-.701 3.82h-3.382v8.588C20.205 24.162 25 18.892 25 12.5 25 5.596 19.404 0 12.5 0Z" fill="#000"/></g><defs><clipPath id="a"><path fill="#fff" d="M0 0h25v25H0z"/></clipPath></defs></svg>