<svg xmlns="http://www.w3.org/2000/svg" viewBox="0 0 100 100" fill="none"><circle cx="33.479" cy="33.376" r="33.156" fill="#fff"/><path fill="#000" d="M34.057 50.25a.635.635 0 0 0 .39-.132.504.504 0 0 0 .115-.14.31.31 0 0 0 .042-.16.397.397 0 0 0-.066-.232.664.664 0 0 0-.178-.178 1.33 1.33 0 0 0-.251-.145l-.287-.133a5.12 5.12 0 0 1-.287-.148 1.196 1.196 0 0 1-.251-.185.726.726 0 0 1-.245-.568c0-.118.024-.226.076-.326.05-.1.12-.19.208-.26a.952.952 0 0 1 .315-.17c.218-.061.447-.075.67-.038a.91.91 0 0 1 .248.078c.082.04.16.094.242.163.093.086.178.18.254.281l-.212.188a1.25 1.25 0 0 0-.372-.405.803.803 0 0 0-.667-.103.554.554 0 0 0-.176.085.404.404 0 0 0-.114.123.295.295 0 0 0-.04.152c0 .087.025.163.073.23a.853.853 0 0 0 .193.178c.082.054.17.102.272.145l.311.133c.106.045.212.096.312.148.102.054.193.114.272.184.078.068.143.15.193.242.048.09.072.2.072.32a.892.892 0 0 1-.069.347.728.728 0 0 1-.209.281 1.03 1.03 0 0 1-.347.188 1.587 1.587 0 0 1-1.027-.03 1.315 1.315 0 0 1-.544-.445l.235-.214c.07.1.14.184.203.257.066.07.13.127.2.172a.652.652 0 0 0 .208.097c.078.012.154.02.238.02Zm4.28-.232a.84.84 0 0 1-.783.435.619.619 0 0 1-.257-.048.454.454 0 0 1-.178-.14.544.544 0 0 1-.103-.214 1.133 1.133 0 0 1-.033-.278v-2.057h-.505v-.145c.163 0 .296-.03.402-.088a.73.73 0 0 0 .26-.239 1.24 1.24 0 0 0 .157-.35 4.1 4.1 0 0 0 .1-.42h.166v.997h.655v.248h-.655v2.057a.307.307 0 0 0 .317.315.323.323 0 0 0 .178-.049.589.589 0 0 0 .14-.118l.138.094Zm1.951-2.55v2.079a.43.43 0 0 0 .052.202.517.517 0 0 0 .139.166.69.69 0 0 0 .453.157.53.53 0 0 0 .184-.036.907.907 0 0 0 .369-.25.963.963 0 0 0 .139-.182v-2.133h.58v2.922h-.58v-.547a1.438 1.438 0 0 1-.722.562.804.804 0 0 1-.27.048.9.9 0 0 1-.652-.269.9.9 0 0 1-.269-.637v-2.08h.577v-.002Zm5.681 2.635a1.912 1.912 0 0 1-.713.323c-.088.015-.17.024-.25.024a.997.997 0 0 1-.484-.12 1.294 1.294 0 0 1-.393-.324 1.717 1.717 0 0 1-.36-1.045c0-.2.04-.39.121-.578.16-.372.45-.673.816-.849a1.39 1.39 0 0 1 .595-.13c.142 0 .27.024.375.076.106.051.205.115.293.196v-1.54l.405-.164h.17v4.478h-.578v-.347h.003Zm0-1.708a.759.759 0 0 0-.728-.77.661.661 0 0 0-.327.087.8.8 0 0 0-.262.242 1.33 1.33 0 0 0-.179.372c-.09.327-.088.672.006.997.049.163.115.302.197.423a.987.987 0 0 0 .293.284.67.67 0 0 0 .54.079.948.948 0 0 0 .46-.278v-1.436Zm2.59-2.423c.045 0 .087.006.13.021a.284.284 0 0 1 .105.064c.03.027.055.057.073.093a.248.248 0 0 1 0 .227.35.35 0 0 1-.613 0 .243.243 0 0 1-.028-.112c0-.04.01-.078.027-.115a.342.342 0 0 1 .306-.178Zm-.281 1.602.404-.167h.17v2.983h-.577v-2.816h.003Zm3.728 2.88a1.602 1.602 0 0 1-1.109-.439 1.462 1.462 0 0 1-.435-1.051c0-.208.038-.415.115-.608a1.523 1.523 0 0 1 1.43-.955c.409-.01.806.141 1.105.42a1.386 1.386 0 0 1 .435 1.019c0 .22-.039.429-.114.625a1.56 1.56 0 0 1-.81.855c-.19.09-.396.133-.617.133Zm.11-.218c.114 0 .22-.03.313-.088a.788.788 0 0 0 .245-.236c.072-.105.127-.221.163-.344.04-.13.058-.27.058-.417 0-.212-.018-.411-.055-.595a1.52 1.52 0 0 0-.175-.484.93.93 0 0 0-.317-.323.922.922 0 0 0-.48-.118.526.526 0 0 0-.285.085.84.84 0 0 0-.241.232 1.287 1.287 0 0 0-.233.759c0 .214.021.414.066.601.038.172.105.336.197.486.08.132.188.243.317.327a.816.816 0 0 0 .426.115ZM13.171 30.888c0 .223-.115.335-.348.335-.224 0-.335-.112-.335-.335V20.215c0-.224.111-.335.335-.335.23 0 .348.111.348.335v1.296a3.944 3.944 0 0 1 2.353-1.613 4.277 4.277 0 0 1 2.203.045 3.92 3.92 0 0 1 1.04.475c.318.206.602.46.843.752.248.296.45.631.613 1a3.88 3.88 0 0 1 1.445-1.752 3.958 3.958 0 0 1 1.045-.475 4.224 4.224 0 0 1 2.753.136 4.003 4.003 0 0 1 2.145 2.082c.215.477.333.997.348 1.562v7.17c0 .224-.121.336-.36.336-.224 0-.335-.112-.335-.335v-7.17a3.378 3.378 0 0 0-2.064-3.01 3.308 3.308 0 0 0-1.29-.254 3.333 3.333 0 0 0-2.33.924 3.27 3.27 0 0 0-1.034 2.255v7.249c0 .223-.108.335-.323.335-.239 0-.36-.112-.36-.335v-7.25a3.367 3.367 0 0 0-1.018-2.254 3.48 3.48 0 0 0-1.045-.676 3.24 3.24 0 0 0-1.266-.248 3.41 3.41 0 0 0-2.375.97 3.386 3.386 0 0 0-.723 1.064 3.214 3.214 0 0 0-.265 1.305v7.089Zm16.111-5.306c0-.816.154-1.584.462-2.3a5.92 5.92 0 0 1 3.128-3.145c.721-.31 1.5-.468 2.284-.463.816 0 1.584.154 2.303.463a6.005 6.005 0 0 1 1.88 1.266 5.97 5.97 0 0 1 1.265 1.88c.31.726.468 1.509.463 2.299 0 .81-.154 1.57-.462 2.29a5.97 5.97 0 0 1-1.267 1.88 5.971 5.971 0 0 1-1.88 1.266 5.762 5.762 0 0 1-2.302.462 5.7 5.7 0 0 1-2.284-.462 5.92 5.92 0 0 1-3.59-5.436Zm.659 0c0 .716.139 1.393.417 2.03a5.349 5.349 0 0 0 2.804 2.792 5.004 5.004 0 0 0 2.03.417c.717 0 1.394-.139 2.031-.417a5.385 5.385 0 0 0 1.665-1.127c.477-.48.86-1.044 1.127-1.665.28-.64.421-1.332.417-2.03 0-.716-.139-1.396-.417-2.034a5.342 5.342 0 0 0-2.792-2.798 5.004 5.004 0 0 0-2.03-.417c-.717 0-1.393.139-2.03.417a5.306 5.306 0 0 0-2.805 2.798 5.04 5.04 0 0 0-.417 2.034Zm23.642 5.26c0 .24-.11.36-.324.36-.238 0-.36-.118-.36-.36v-2.891c-.11.258-.218.518-.322.78a2.917 2.917 0 0 1-.439.758h.024a5.892 5.892 0 0 1-1.867 1.486 5.1 5.1 0 0 1-2.33.538 5.132 5.132 0 0 1-2.163-.468 5.573 5.573 0 0 1-1.774-1.278 6.107 6.107 0 0 1-1.635-4.21 6.153 6.153 0 0 1 1.635-4.185 5.606 5.606 0 0 1 1.774-1.278 5.12 5.12 0 0 1 4.43.07 6.17 6.17 0 0 1 1.849 1.405c.084.094.166.205.242.341.158.277.298.565.417.861l.163.393V6.732c0-.223.12.151.36.151.214 0 .323.112.323.336v23.623h-.003Zm-.717-5.284c0-.717-.13-1.396-.386-2.037a5.58 5.58 0 0 0-1.052-1.683 4.947 4.947 0 0 0-1.562-1.14 4.46 4.46 0 0 0-1.9-.416c-.687 0-1.327.139-1.92.417a4.883 4.883 0 0 0-1.55 1.139 5.494 5.494 0 0 0-1.42 3.72 5.539 5.539 0 0 0 1.42 3.734 4.96 4.96 0 0 0 1.55 1.14 4.423 4.423 0 0 0 1.92.423c.67 0 1.305-.143 1.9-.424a5.041 5.041 0 0 0 1.562-1.139 5.469 5.469 0 0 0 1.438-3.735ZM13.148 39.56c0 .716.14 1.387.417 2.012a5.2 5.2 0 0 0 2.786 2.726 5.134 5.134 0 0 0 2.013.399 5.213 5.213 0 0 0 3.62-1.378c.07-.07.142-.106.22-.106.06 0 .13.033.209.1a.306.306 0 0 1 .115.236c0 .1-.06.2-.185.302v-.024a5.698 5.698 0 0 1-1.797 1.139 5.864 5.864 0 0 1-2.146.387 5.758 5.758 0 0 1-2.3-.463 5.91 5.91 0 0 1-3.145-3.133 5.763 5.763 0 0 1-.462-2.303 6.128 6.128 0 0 1 1.61-4.179 5.583 5.583 0 0 1 1.74-1.266 4.955 4.955 0 0 1 4.128-.03 5.532 5.532 0 0 1 1.677 1.184 6.276 6.276 0 0 1 1.723 3.932c.015.03.024.057.024.075v.052c0 .223-.109.335-.323.335h-9.924v.003Zm4.787-5.342c-.61 0-1.185.12-1.729.36a4.854 4.854 0 0 0-1.456.981 5.387 5.387 0 0 0-1.064 1.475 5.58 5.58 0 0 0-.538 1.834h9.564a5.318 5.318 0 0 0-1.571-3.303 4.91 4.91 0 0 0-1.469-.988 4.312 4.312 0 0 0-1.737-.36Zm13.613.133c.039.03.075.066.108.108a.248.248 0 0 1 .052.167c0 .1-.03.184-.094.247a.317.317 0 0 1-.233.1.548.548 0 0 1-.139-.018.249.249 0 0 1-.114-.063 4.627 4.627 0 0 0-1.064-.514 3.626 3.626 0 0 0-1.19-.203 3.09 3.09 0 0 0-1.367.306 3.35 3.35 0 0 0-1.081.843 3.96 3.96 0 0 0-.71 1.254 4.542 4.542 0 0 0-.254 1.525l-.058 27.465c0 .223-.114.042-.347.042-.224 0-.335.018-.335-.206V34.007c0-.224.111-.335.335-.335.23 0 .347.111.347.335v1.78a3.154 3.154 0 0 1 1.318-1.71 3.37 3.37 0 0 1 .988-.432c.36-.097.725-.145 1.103-.145.501 0 .985.075 1.45.226a4.6 4.6 0 0 1 1.285.626Zm2.172 10.412c0 .224-.115.336-.347.336-.224 0-.336-.112-.336-.336V34.091c0-.224.112-.336.336-.336.23 0 .347.112.347.336v1.677a4.578 4.578 0 0 1 1.686-1.66 4.705 4.705 0 0 1 2.378-.606 4.674 4.674 0 0 1 3.354 1.38c.43.432.772.942 1.01 1.502.247.574.368 1.19.368 1.843v6.536c0 .224-.109.336-.33.336-.22 0-.329-.112-.329-.336v-6.578a4.224 4.224 0 0 0-.341-1.577 3.976 3.976 0 0 0-3.729-2.42 4.17 4.17 0 0 0-1.568.296 3.92 3.92 0 0 0-2.145 2.057 4.089 4.089 0 0 0-.36 1.544v6.678h.006Z"/><path fill="#000" d="M33.502 67.003C15.03 67.003 0 51.973 0 33.501 0 15.03 15.027 0 33.502 0 51.975 0 67 15.03 67 33.502c0 18.471-15.027 33.501-33.498 33.501Zm0-66.308C15.41.695.694 15.414.694 33.501c0 18.088 14.716 32.807 32.806 32.807 18.091 0 32.807-14.716 32.807-32.807C66.307 15.411 51.588.695 33.5.695Z"/><path fill="#000" d="M33.502 67.003C15.03 67.003 0 51.973 0 33.501 0 15.03 15.027 0 33.502 0 51.975 0 67 15.03 67 33.502c0 18.471-15.027 33.501-33.498 33.501Zm0-66.308C15.41.695.694 15.414.694 33.501c0 18.088 14.716 32.807 32.806 32.807 18.091 0 32.807-14.716 32.807-32.807C66.307 15.411 51.588.695 33.5.695Z"/></svg>