<svg width="32" height="32" viewBox="0 0 32 32" fill="none" xmlns="http://www.w3.org/2000/svg">
<path fill-rule="evenodd" clip-rule="evenodd" d="M23.0885 10.7502C20.3288 10.7502 18.0727 13.0899 18.0727 16.0002C18.0727 18.9106 20.3288 21.2502 23.0885 21.2502C25.8481 21.2502 28.1042 18.9106 28.1042 16.0002C28.1042 13.0899 25.8481 10.7502 23.0885 10.7502ZM16.6539 15.2502C17.0114 11.8837 19.7469 9.25024 23.0885 9.25024C26.6745 9.25024 29.5625 12.2832 29.5625 16.0002C29.5625 19.7173 26.6745 22.7502 23.0885 22.7502C19.7469 22.7502 17.0114 20.1168 16.6539 16.7502H3.5556V15.2502H16.6539ZM9.38899 19.7498L3.55566 19.7502L3.55554 18.2502L9.38888 18.2498L9.38899 19.7498Z" fill="#2E2B26"/>
</svg>
